<svg width="47" height="50" viewBox="0 0 47 50" fill="none" xmlns="http://www.w3.org/2000/svg">
<path fill-rule="evenodd" clip-rule="evenodd" d="M18.0514 0.0952788C16.9346 0.359607 15.6679 1.41438 15.0694 2.57828C14.6084 3.47472 14.4608 4.14166 14.5272 5.02754L14.5806 5.73818L13.2066 5.77358C12.0575 5.80321 11.7585 5.84331 11.3792 6.01835C10.7386 6.31407 10.0878 6.95538 9.7736 7.60031C9.51629 8.12877 9.50494 8.21404 9.50494 9.6189C9.50494 11.0152 9.51755 11.1117 9.7672 11.6236C10.119 12.3452 10.7489 12.948 11.4527 13.2364L12.0267 13.4716L12.0752 21.0798L12.1236 28.6881L12.3937 29.2048C12.754 29.8942 13.3332 30.4606 14.0006 30.7761L14.5484 31.035H24.3443H34.1402L34.7018 30.7483C35.6737 30.2521 36.3072 29.3932 36.5076 28.3003C36.5778 27.9172 36.6134 25.3208 36.6134 20.5773V13.4315L37.015 13.3051C37.9506 13.0107 38.8044 12.0895 39.0425 11.1175C39.1094 10.8444 39.1408 10.1356 39.1204 9.35731C39.0905 8.21805 39.0568 7.99372 38.8514 7.57283C38.5513 6.95734 38.0178 6.42106 37.3684 6.08202C36.8936 5.83402 36.7525 5.81153 35.4495 5.77515L34.0432 5.73584V4.64586C34.0432 3.59647 34.0302 3.52851 33.6947 2.82011C32.584 0.475195 30.1093 -0.613605 28.1271 0.370364C27.2489 0.806216 26.8252 1.26808 25.4908 3.24404L24.3145 4.98588L23.1689 3.2944C22.5388 2.36412 21.8776 1.44039 21.6996 1.24168C20.8042 0.242454 19.3545 -0.213153 18.0514 0.0952788ZM19.9088 2.25801C20.1547 2.42211 20.6218 3.01002 21.2993 4.00837C21.8605 4.83519 22.3522 5.56676 22.392 5.63394C22.4493 5.73065 21.8641 5.75618 19.5926 5.75618H16.7207L16.5802 5.41704C16.1041 4.2681 16.9735 2.58708 18.3129 2.06674C18.7762 1.8868 19.4785 1.9709 19.9088 2.25801ZM30.7399 2.27611C31.8221 2.91556 32.4193 4.36677 32.0454 5.44824L31.9389 5.75618H29.0388H26.1385L27.0752 4.36266C28.1263 2.79899 28.4603 2.40108 28.9513 2.12766C29.4064 1.87419 30.1665 1.93726 30.7399 2.27611ZM36.8634 8.12613L37.1954 8.49148V9.6189V10.7463L36.8635 11.1117L36.5315 11.4769L30.2218 11.5258L23.9121 11.5747L23.6455 11.8436C23.2487 12.2438 23.2689 12.8159 23.6934 13.1982L24.0079 13.4816H29.3431H34.6784L34.6518 20.7915C34.6259 27.9004 34.6198 28.1104 34.4312 28.4325C34.3245 28.6147 34.0851 28.8457 33.8993 28.9459C33.5764 29.12 33.1493 29.1281 24.3167 29.1281C14.2886 29.1281 14.8299 29.1572 14.3059 28.5917L14.0634 28.3301L14.0374 20.9059L14.0113 13.4816H14.833C15.7747 13.4816 16.0477 13.387 16.2877 12.9774C16.5209 12.5794 16.4224 12.0998 16.0409 11.7762C15.7487 11.5283 15.7291 11.5258 14.0317 11.5254C12.4836 11.5251 12.2866 11.506 11.9966 11.3277C11.55 11.0532 11.3962 10.6157 11.3962 9.6189C11.3962 8.62232 11.5499 8.185 11.9966 7.90943C12.315 7.71306 12.4168 7.7116 24.4245 7.73614L36.5314 7.76088L36.8634 8.12613ZM19.3978 11.6344C18.548 12.1271 18.7464 13.3209 19.6995 13.4497C20.0449 13.4965 20.1411 13.4646 20.4245 13.2093C20.8509 12.8251 20.8858 12.2483 20.5058 11.8651C20.225 11.582 19.683 11.4691 19.3978 11.6344ZM2.96021 13.7888C2.36557 14.022 2.14016 14.5892 2.42289 15.1405C2.56245 15.4126 2.91113 15.6144 5.06235 16.6681C7.496 17.8602 7.89666 17.9981 8.29791 17.7815C8.52981 17.6564 8.77752 17.1874 8.77752 16.8735C8.77752 16.3863 8.41633 16.1358 6.01527 14.9573C4.72153 14.3223 3.55892 13.7784 3.43177 13.7486C3.30471 13.7188 3.0924 13.7369 2.96021 13.7888ZM44.2756 14.1505C43.7154 14.4118 42.545 14.9859 41.6745 15.4265C40.305 16.1197 40.0744 16.2698 39.9618 16.5415C39.8903 16.7142 39.8547 16.977 39.8829 17.1254C39.953 17.4955 40.4317 17.8822 40.8196 17.8822C41.2358 17.8822 45.9344 15.5468 46.1539 15.2309C46.3985 14.8788 46.3547 14.4111 46.0456 14.0734C45.6218 13.6103 45.4144 13.6193 44.2756 14.1505ZM20.9316 16.0037C19.8798 16.3838 19.1814 17.0805 18.7545 18.1756C18.3189 19.2933 18.5251 20.9253 19.2229 21.882C19.6188 22.4249 23.7184 26.3908 23.9975 26.5009C24.5093 26.7028 24.7481 26.5291 27.0798 24.2589C29.1259 22.2667 29.3788 21.9848 29.69 21.3499C30.3487 20.0062 30.2175 18.3929 29.356 17.2437C28.6526 16.3054 27.7453 15.8286 26.6631 15.8286C26.0578 15.8286 25.1111 16.1086 24.6871 16.4129L24.3818 16.6321L23.6765 16.2712C22.7799 15.8124 21.7416 15.7112 20.9316 16.0037ZM22.6955 17.9787C22.9088 18.0833 23.2438 18.3074 23.4399 18.4768C23.9422 18.9107 24.5141 18.9667 24.9747 18.6271C25.9611 17.8996 26.0613 17.8478 26.5566 17.8077C27.1857 17.7568 27.6156 18.0196 27.9584 18.6645C28.1548 19.0342 28.185 19.2019 28.1467 19.7127C28.1201 20.0684 28.0258 20.4411 27.9196 20.6102C27.8197 20.7692 26.9678 21.6503 26.0267 22.5682L24.3153 24.237L22.4665 22.4042C20.8407 20.7924 20.6045 20.5188 20.5078 20.1355C20.3699 19.5883 20.4559 19.0249 20.7565 18.5077C21.1597 17.8139 21.93 17.6038 22.6955 17.9787ZM1.88382 20.515C1.41148 20.9913 1.54203 21.7486 2.14637 22.0378C2.42541 22.1713 2.87815 22.1893 5.34158 22.1647L8.21178 22.1361L8.4946 21.8167C8.90438 21.3542 8.85007 20.8076 8.35397 20.4025C8.16814 20.2507 7.84361 20.2333 5.15721 20.2313L2.16732 20.2292L1.88382 20.515ZM40.2209 20.4726C39.8764 20.7649 39.7859 21.1455 39.9607 21.5672C40.2044 22.1554 40.372 22.185 43.4512 22.185C46.3959 22.185 46.654 22.1487 46.8914 21.7014C47.0891 21.3288 47.0105 20.8202 46.7078 20.515L46.4243 20.2292H43.4661H40.5078L40.2209 20.4726ZM7.41967 24.5704C6.35939 24.9827 2.66429 26.9006 2.48321 27.1328C2.2422 27.4417 2.22425 27.7594 2.4257 28.1522C2.60076 28.4935 2.84304 28.6392 3.23537 28.6392C3.56144 28.6392 8.35843 26.327 8.56802 26.0687C8.6395 25.9807 8.72078 25.7372 8.74872 25.5276C8.79158 25.2051 8.75657 25.0996 8.52176 24.8427C8.18433 24.4736 7.86902 24.3957 7.41967 24.5704ZM40.4167 24.5793C40.0519 24.7416 39.777 25.2781 39.8691 25.6481C39.9708 26.0564 40.3192 26.2787 42.7298 27.4727C45.3447 28.7679 45.5606 28.8255 46.0288 28.3533C46.362 28.0173 46.4123 27.4538 46.1405 27.1023C45.978 26.8922 41.4239 24.5933 40.9639 24.4891C40.8383 24.4607 40.592 24.5013 40.4167 24.5793ZM15.9786 33.829C14.4831 33.9747 13.1198 34.4206 11.8326 35.1851C10.6756 35.8721 10.0114 36.1607 9.45644 36.2176L8.923 36.2723L8.63204 35.8053C8.26804 35.221 7.50405 34.7391 6.80146 34.6506C6.5263 34.6159 5.31995 34.6047 4.12049 34.6257C1.70352 34.6678 1.53156 34.7053 0.833816 35.3408C0.628005 35.5283 0.356241 35.9123 0.229864 36.1943L0 36.7069V41.8409C0 46.8612 0.00455853 46.9848 0.205035 47.4218C0.443823 47.9421 0.978233 48.4971 1.48597 48.7517C1.79963 48.909 2.15364 48.9342 4.41107 48.9598C7.30096 48.9926 7.50919 48.9569 8.22575 48.3057C8.62981 47.9384 9.06587 47.1351 9.06752 46.7549C9.06868 46.4994 9.00215 46.5055 10.3763 46.6368C11.8807 46.7807 12.5654 46.949 17.2641 48.3295C23.0605 50.0326 22.8887 49.9911 24.1988 49.9994C25.1748 50.0055 25.4197 49.9715 26.1587 49.7273C27.5974 49.2517 27.4702 49.3364 36.6255 42.7572C38.7392 41.2382 40.6066 39.8275 40.7751 39.6224C40.9436 39.4172 41.1983 39.0074 41.341 38.7116C41.5621 38.253 41.601 38.0437 41.6044 37.2919C41.608 36.4899 41.5797 36.3514 41.2922 35.7622C40.9232 35.0062 40.3941 34.4866 39.6371 34.1371C38.9215 33.8069 37.9223 33.7373 37.1494 33.9638C36.8392 34.0547 34.7696 35.0441 32.5501 36.1626C30.3307 37.281 28.4268 38.2238 28.3191 38.2576C28.1533 38.3098 28.0973 38.2448 27.9522 37.8328C27.7403 37.2312 26.8725 36.2607 26.2943 35.9784C25.7661 35.7207 21.336 34.3955 20.0991 34.1253C19.3091 33.9527 17.1886 33.6982 16.8761 33.7384C16.8228 33.7453 16.4188 33.7861 15.9786 33.829ZM19.2039 35.9434C20.3348 36.1405 25.2429 37.5884 25.5506 37.8156C26.3585 38.4122 26.514 39.518 25.8947 40.2601C25.5963 40.6176 25.095 40.863 24.6629 40.863C24.4809 40.863 23.05 40.4889 21.4831 40.0318C19.9162 39.5746 18.5147 39.2005 18.3688 39.2005C18.0438 39.2005 17.5493 39.6021 17.467 39.9329C17.3883 40.2491 17.6251 40.8154 17.8974 40.9623C18.0147 41.0256 19.4478 41.472 21.082 41.9543C23.8751 42.7787 24.097 42.829 24.7807 42.7932C25.7986 42.74 26.5631 42.3807 27.2498 41.6329C27.5375 41.3196 27.802 40.9705 27.8377 40.8572C27.9365 40.5435 37.3448 35.8811 38.0284 35.8072C38.6296 35.7421 39.1352 35.953 39.4523 36.4011C39.7522 36.8251 39.7522 37.6471 39.4522 38.1334C39.294 38.3898 37.6423 39.6284 33.3228 42.7296C30.0707 45.0645 27.0674 47.1605 26.6487 47.3874C25.6179 47.9459 24.8337 48.14 23.9078 48.0655C23.1045 48.0009 22.3761 47.8069 17.2641 46.2955C15.3437 45.7278 13.2871 45.1532 12.6939 45.0189C11.839 44.8253 9.96166 44.5905 9.18972 44.5806C9.09526 44.5793 9.06849 43.8804 9.06849 41.4161V38.2531L9.86516 38.1395C10.7273 38.0166 11.2538 37.7923 12.7313 36.9182C14.6685 35.7723 16.575 35.4852 19.2039 35.9434ZM6.7714 36.6727C6.88788 36.7345 7.01532 36.8335 7.05451 36.8927C7.09369 36.9518 7.12638 39.1751 7.12725 41.8332C7.12861 46.1943 7.11299 46.6836 6.96819 46.8449C6.82144 47.0084 6.61427 47.0238 4.55849 47.0238C2.49805 47.0238 2.29573 47.0087 2.14792 46.8439C2.00108 46.6804 1.98876 46.2177 2.01165 41.7372L2.03677 36.8104L2.27925 36.6867C2.60367 36.5213 6.46326 36.5091 6.7714 36.6727Z" fill="#008577"/>
</svg>
